<?xml version="1.0" encoding="iso-8859-1"?>
<!-- Generator: Adobe Illustrator 19.0.0, SVG Export Plug-In . SVG Version: 6.00 Build 0)  -->
<svg version="1.1" id="Layer_1" xmlns="http://www.w3.org/2000/svg" xmlns:xlink="http://www.w3.org/1999/xlink" x="0px" y="0px"
	 viewBox="0 0 512 512" style="enable-background:new 0 0 512 512;" xml:space="preserve">
<path style="fill:#FDC794;" d="M88.453,364.308c0-47.262,2.954-58.092,29.538-68.923L98.3,40.369C96.33,21.662,114.053,0,132.761,0
	l0,0c14.769,0,23.631,10.831,29.538,26.585c2.954,6.892,4.923,14.769,5.908,22.646l18.708,128h0.985
	c3.938-15.754,16.738-29.538,32.492-29.538s29.538,13.785,33.477,29.538h2.954c3.938-15.754,16.738-29.538,32.492-29.538
	s29.538,13.785,33.477,29.538h1.969L354.3,68.923c4.923-18.708,15.754-39.385,35.446-39.385l0,0
	c18.708,0,36.431,7.877,33.477,39.385l-29.538,236.308c0,97.477,1.969,95.508-29.538,137.846v39.385
	c0,16.738-12.8,29.538-29.538,29.538H157.376c-16.738,0-29.538-12.8-29.538-29.538v-39.385
	C127.838,443.077,88.453,410.585,88.453,364.308"/>
<g>
	<path style="fill:#F9A671;" d="M290.3,344.615c-25.6,0-45.292-25.6-45.292-49.231V187.077l0,0
		c0-23.631,17.723-49.231,43.323-49.231s45.292,25.6,45.292,49.231l0,0v108.308C334.607,319.015,315.9,344.615,290.3,344.615z
		 M265.684,187.077v108.308c0,13.785,11.815,29.538,25.6,29.538s23.631-15.754,23.631-29.538V187.077
		c0-13.785-11.815-29.538-25.6-29.538S265.684,173.292,265.684,187.077z"/>
	<path style="fill:#F9A671;" d="M157.376,354.462c-2.954,0-5.908-0.985-7.877-3.938c-3.938-3.938-2.954-10.831,0.985-13.785
		c43.323-36.431,58.092-56.123,63.015-66.954c4.923-10.831-0.985-30.523-11.815-36.431c-9.846-5.908-18.708,3.938-24.615,12.8
		c-8.862,12.8-24.615,36.431-54.154,56.123c-4.923,2.954-10.831,1.969-13.785-2.954c-2.954-4.923-1.969-10.831,2.954-13.785
		c26.585-18.708,41.354-40.369,49.231-51.2c21.662-32.492,44.308-22.646,51.2-18.708c19.692,11.815,29.538,41.354,19.692,62.031
		C224.33,295.385,200.7,320,164.269,351.508C162.3,353.477,159.346,354.462,157.376,354.462z"/>
	<path style="fill:#F9A671;" d="M221.376,344.615c-14.769,0-29.538-9.846-38.4-25.6c-1.969-3.938-1.969-8.862,1.969-11.815
		c14.769-14.769,24.615-28.554,29.538-37.415c3.938-8.862,0.985-24.615-7.877-33.477c-6.892-6.892-13.785-3.938-15.754-2.954
		c-2.954,1.969-6.892,0.985-9.846,0c-2.954-1.969-4.923-4.923-4.923-8.862v-37.415c0-23.631,17.723-49.231,43.323-49.231
		s45.292,25.6,45.292,49.231v108.308C265.684,319.015,246.976,344.615,221.376,344.615z M204.638,316.062
		c4.923,5.908,10.831,8.862,16.738,8.862c13.785,0,23.631-15.754,23.631-29.538V187.077c0-13.785-11.815-29.538-25.6-29.538
		c-12.8,0-23.631,15.754-23.631,29.538v25.6c8.862,0,16.738,2.954,23.631,9.846c14.769,14.769,19.692,38.4,11.815,56.123
		C227.284,288.492,218.423,301.292,204.638,316.062z"/>
</g>
<g>
</g>
<g>
</g>
<g>
</g>
<g>
</g>
<g>
</g>
<g>
</g>
<g>
</g>
<g>
</g>
<g>
</g>
<g>
</g>
<g>
</g>
<g>
</g>
<g>
</g>
<g>
</g>
<g>
</g>
</svg>
